<?xml version="1.0" encoding="utf-8"?>
<!-- Generator: Adobe Illustrator 13.0.3, SVG Export Plug-In . SVG Version: 6.00 Build 14948)  -->
<!DOCTYPE svg PUBLIC "-//W3C//DTD SVG 1.1//EN" "http://www.w3.org/Graphics/SVG/1.1/DTD/svg11.dtd">
<svg version="1.1" id="レイヤー_2" xmlns="http://www.w3.org/2000/svg" xmlns:xlink="http://www.w3.org/1999/xlink" x="0px"
	 y="0px" width="232.667px" height="229px" viewBox="0 0 232.667 229" enable-background="new 0 0 232.667 229"
	 xml:space="preserve">
<g opacity="0.96">
	<path d="M51.639,157.52c-0.962,3.03-3.791,5.23-7.141,5.23s-6.179-2.2-7.141-5.23c-0.041-0.131-0.177-0.133-0.204,0
		c-0.099,0.479-0.155,0.974-0.155,1.48c0,4.143,3.358,7.5,7.5,7.5s7.5-3.357,7.5-7.5c0-0.507-0.056-1.001-0.155-1.48
		C51.816,157.389,51.68,157.389,51.639,157.52z"/>
	<path d="M215.66,0H17.008C7.653,0,0,7.653,0,17.008v194.984C0,221.348,7.653,229,17.008,229H215.66
		c9.354,0,17.008-7.654,17.008-17.008V17.008C232.667,7.653,225.013,0,215.66,0z M208.646,208.666H18.808
		c-5.524,0-10-4.477-10-9.999c0-2.782,1.138-5.299,2.972-7.11h-0.002l19.224-19.224H18.808c-5.524,0-10-4.478-10-9.999
		c0-5.523,4.477-10.002,10-10.002h18.19V123H24.167c-4.333,0-2.667-6.834-1.654-11.194L39.168,18c0,0,0.999-4.916,4.916-4.916
		S49.001,18,49.001,18l16.655,93.806c1.012,4.36,2.678,11.194-1.654,11.194H51.998v29.333h11.334V125h1.338
		c0.05,0.002,0.1,0.003,0.15,0.003c1.546,0,3.078-0.856,3.778-2.086c0.745-1.239,0.891-2.558,0.901-3.872
		c-0.01-2.609-0.717-5.458-1.215-7.637L61.6,73.769L71.502,18c0,0,0.999-4.916,4.916-4.916S81.335,18,81.335,18l16.656,93.806
		c1.012,4.36,2.678,11.194-1.654,11.194H78.332v29.333h17.551c5.524,0,10,4.478,10,10.002c0,2.888-1.232,5.483-3.191,7.31
		l-19.025,19.023h95.331v-69.387l-37.289-30.313l-30.646,25.305v0.002l-11.46-13.881l42.018-34.696l55.377,45.018L197,188.667
		h11.646c5.523,0,10,4.476,10,10C218.646,204.189,214.167,208.666,208.646,208.666z M140.5,138c14.25,0,14.375,8.375,14.375,8.375
		v40.375h-28.75v-40.375C126.125,146.375,126.25,138,140.5,138z M126.125,121.875c0-7.939,6.438-14.375,14.375-14.375
		c7.939,0,14.375,6.436,14.375,14.375c0,7.939-6.436,14.375-14.375,14.375C132.561,136.25,126.125,129.814,126.125,121.875z"/>
	<path d="M77.726,157.52c-0.962,3.03-3.791,5.23-7.141,5.23s-6.179-2.2-7.141-5.23c-0.041-0.131-0.177-0.133-0.204,0
		c-0.099,0.479-0.155,0.974-0.155,1.48c0,4.143,3.358,7.5,7.5,7.5c4.143,0,7.5-3.357,7.5-7.5c0-0.507-0.056-1.001-0.155-1.48
		C77.903,157.389,77.767,157.389,77.726,157.52z"/>
</g>
</svg>
